<svg id="Layer_1" data-name="Layer 1" xmlns="http://www.w3.org/2000/svg" viewBox="0 0 1870.38 418.16"><title>amphion_full</title><polygon points="125.46 242.47 53.79 366.59 197.13 366.59 125.46 242.47"/><polygon points="230.96 59.73 186.67 136.45 319.55 366.59 363.84 289.88 230.96 59.73"/><path d="M650.63,362.53c-3.4,0-5.3-1.89-6-5.3L634,302H566.6l-10.22,55.26c-.75,3.41-2.64,5.3-6,5.3h-40.5c-4.16,0-6.06-2.27-4.92-6.43L567.74,65c.76-3.78,3-5.3,6.43-5.3h52.62c3.4,0,5.67,1.52,6.43,5.3L696.05,356.1c.76,4.16-.75,6.43-5.3,6.43ZM600.29,126l-24.22,132.1h48.45Z"/><path d="M930.73,59.73c4.92,0,7.57,2.65,7.57,7.57V355c0,4.92-2.65,7.57-7.57,7.57h-35.2c-4.92,0-7.57-2.65-7.57-7.57V184.64h-2.65L847.84,355.72c-1.14,4.54-3.79,6.81-8.33,6.81H821c-4.54,0-7.19-2.27-8.33-6.81L775.16,184.64h-2.65V355c0,4.92-2.65,7.57-7.57,7.57H730.12c-4.92,0-7.57-2.65-7.57-7.57V67.3c0-4.92,2.65-7.57,7.57-7.57h50c4.54,0,7.19,2.27,8.33,6.82l42,188.49,42-188.49c1.13-4.55,3.78-6.82,8.32-6.82Z"/><path d="M976.15,65.79c0-3.79,2.27-6.06,6.05-6.06H1073c35.58,0,54.51,18.93,54.51,54.51v92.35c0,35.2-18.93,54.51-54.51,54.51h-45.42v95.38c0,3.78-1.89,6-6,6H982.2c-3.78,0-6.05-2.27-6.05-6Zm84.78,145.34c10.22,0,15.14-5.67,15.14-15.14V124.83c0-9.84-4.92-15.13-15.14-15.13h-33.31V211.13Z"/><path d="M1265.32,65.79c0-3.79,2.27-6.06,6.06-6.06h39c4.54,0,6.44,2.27,6.44,6.06V356.48c0,3.78-1.9,6-6.44,6h-39c-3.79,0-6.06-2.27-6.06-6V236.11h-48.45V356.48c0,3.78-2.27,6-6,6h-39c-4.54,0-6.43-2.27-6.43-6V65.79c0-3.79,1.89-6.06,6.43-6.06h39c3.78,0,6,2.27,6,6.06V186.15h48.45Z"/><path d="M1400.07,59.73c3.78,0,6,2.27,6,6.06V356.48c0,3.78-2.27,6-6,6H1360.7c-4.16,0-6-2.27-6-6V65.79c0-3.79,1.89-6.06,6-6.06Z"/><path d="M1444,114.24c0-35.58,18.92-54.51,54.5-54.51h42.4c35.58,0,54.5,18.93,54.5,54.51V308c0,35.58-18.92,54.5-54.5,54.5h-42.4c-35.58,0-54.5-18.92-54.5-54.5Zm87.43,199.47c9.84,0,15.14-4.92,15.14-15.14V123.7c0-9.84-5.3-15.14-15.14-15.14h-22c-9.84,0-15.14,5.3-15.14,15.14V298.57c0,10.22,5.3,15.14,15.14,15.14Z"/><path d="M1788.78,59.73c3.79,0,6.06,2.27,6.06,6.06V356.48c0,3.78-2.27,6-6.06,6h-37.47a6.51,6.51,0,0,1-6.81-4.92L1686.59,196h-1.89V356.48c0,3.78-1.9,6-6.06,6h-39.36c-3.79,0-6.06-2.27-6.06-6V65.79c0-3.79,2.27-6.06,6.06-6.06h37.47a6.52,6.52,0,0,1,6.81,4.92l57.53,160.87h2.27V65.79c0-3.79,1.9-6.06,6.06-6.06Z"/></svg>